<?xml version="1.0" encoding="utf-8"?>
<svg version="1.2" baseProfile="tiny" xmlns="http://www.w3.org/2000/svg" xmlns:xlink="http://www.w3.org/1999/xlink"
	 x="0px" y="0px" width="150px" height="23.05px" viewBox="21.494 17.858 150 23.05" xml:space="preserve">
<path id="R_1_" fill="#5F6062" d="M169.428,33.394h-0.218v0.624h0.143c0.322,0,0.436-0.183,0.436-0.339
	C169.787,33.486,169.693,33.394,169.428,33.394 M169.798,35.196l-0.558-0.911h-0.028v0.911h-0.418v-2.114h0.701
	c0.522,0,0.731,0.213,0.731,0.542c0,0.35-0.211,0.561-0.542,0.606c0.049,0.055,0.124,0.165,0.201,0.285l0.435,0.68L169.798,35.196
	L169.798,35.196z M169.468,32.64c-0.854,0-1.535,0.671-1.535,1.49c0,0.827,0.682,1.524,1.535,1.524c0.843,0,1.524-0.671,1.524-1.488
	C170.992,33.34,170.311,32.64,169.468,32.64 M169.468,36.114c-1.156,0-2.039-0.862-2.039-1.966c0-1.085,0.911-1.966,2.039-1.966
	c1.136,0,2.026,0.854,2.026,1.966C171.493,35.222,170.565,36.114,169.468,36.114"/>
<path id="Icon_bg_1_" fill="#5F6062" d="M154.035,18.489c0,0-9.223,13.796-10.063,15.014c-0.843,1.216,0.211,2.515,1.084,2.575
	h3.652c0,0,6.559-9.595,7.112-10.299c0.551-0.706,1.997-0.725,2.585,0.303c0.521,0.908,3.368,5.875,4.024,7.024l1.692,2.912
	c1.212,0.004,1.799-1.541,1.282-2.446c0,0-7.618-13.484-8.279-14.636C156.369,17.621,154.785,17.555,154.035,18.489"/>
<path id="Icon_fg_1_" fill="#00ABE6" d="M164.358,40.906c0.873-0.066,1.921-1.37,1.069-2.583l-4.192-7.403l-1.691-2.912
	c0.087,0.148,0.139,0.238,0.139,0.238c-0.688-0.723-2.02-0.989-2.78,0l-6.8,10.085c-0.841,1.218,0.211,2.518,1.083,2.577
	L164.358,40.906z"/>
<path id="Market_1_" fill="#5F6062" d="M82.711,19.769l-2.8,8.418c-0.355,1.041-0.6,1.869-0.815,2.893
	c-0.208-0.988-0.464-1.947-0.799-2.94l-2.724-8.373h-3.818l-2.523,16.362h3.399l0.922-7.535c0.153-1.15,0.295-2.214,0.396-3.348
	c0.217,1.093,0.548,2.258,0.899,3.327l2.486,7.556h3.257l2.58-8.182c0.333-1.059,0.571-2.001,0.763-2.873
	c0.111,0.954,0.235,1.997,0.442,3.263l1.158,7.792h3.513l-2.548-16.362L82.711,19.769L82.711,19.769z M99.392,33.568v-5.557
	c0.002-1.316-0.269-2.389-1.051-3.127c-0.778-0.742-2.037-1.125-3.959-1.125c-1.553,0-3.089,0.313-4.298,0.749l-0.087,0.033
	l0.293,2.829l0.162-0.092c0.977-0.56,2.4-0.916,3.446-0.913c1.697,0.021,2.175,0.572,2.196,1.764v0.523
	c-3.988,0.04-6.843,1.554-6.851,4.471c-0.001,0.978,0.319,1.797,0.928,2.368c0.609,0.566,1.486,0.878,2.582,0.877h0.002
	c1.579,0,2.923-0.724,3.636-1.833c-0.043,0.483-0.057,1-0.057,1.501v0.115l0.118,0.005c0.311,0.007,0.629,0.016,0.958,0.016
	c1.314,0,2.744-0.077,3.953-0.23l0.104-0.015V33.8l-0.108-0.007C100.711,33.747,99.95,33.661,99.392,33.568 M96.094,31.046
	c-0.001,1.383-0.988,2.743-2.412,2.747c-0.836-0.012-1.281-0.445-1.288-1.148c0.003-0.854,0.588-1.731,3.698-1.764L96.094,31.046
	L96.094,31.046z M109.004,23.744c-1.617,0-2.649,0.943-3.256,2.109c0.077-0.639,0.117-1.275,0.117-1.733v-0.118L105.748,24
	c-0.326-0.01-0.654-0.015-0.991-0.015c-1.339,0-2.758,0.079-3.974,0.231l-0.104,0.014v2.129l0.112,0.005
	c0.647,0.044,1.403,0.132,1.965,0.218v9.55h3.27v-4.968c0.013-2.893,0.827-4.24,2.432-4.24c0.223,0,0.466,0.027,0.722,0.078
	l0.135,0.033l0.156-3.264l-0.114-0.011C109.239,23.75,109.119,23.744,109.004,23.744 M120.745,24.024h-4.029l-3.282,4.682V18.438
	l-0.117-0.001c-0.362-0.01-0.726-0.016-1.084-0.016c-1.423,0-2.844,0.077-4.069,0.23l-0.104,0.016v2.127l0.107,0.004
	c0.653,0.045,1.403,0.135,1.971,0.223v15.111h3.294v-5.58l3.489,5.578h4.119l-4.571-6.563L120.745,24.024z M125.804,23.76
	c-1.807,0-3.245,0.687-4.211,1.834c-0.969,1.15-1.475,2.755-1.475,4.591c0,2.107,0.527,3.661,1.556,4.688
	c1.028,1.021,2.532,1.497,4.435,1.497c1.497,0,3.015-0.264,4.298-0.77l0.088-0.032l-0.318-2.625l-0.149,0.072
	c-1.009,0.469-2.263,0.729-3.414,0.729c-2.118-0.021-3.118-0.965-3.148-3.061h7.337l0.017-0.101c0.067-0.508,0.094-0.993,0.094-1.4
	c0-1.491-0.385-2.846-1.223-3.83C128.848,24.365,127.562,23.758,125.804,23.76 M127.645,28.369h-4.119
	c0.207-1.313,1.021-2.12,2.178-2.125c1.196,0.01,1.932,0.758,1.941,2.121V28.369z M138.746,26.627v-2.603h-2.896v-4.502
	l-3.291,0.876v3.626h-2.028v2.603h2.049v5.897c0.004,1.397,0.203,2.359,0.771,2.981c0.568,0.625,1.473,0.862,2.794,0.862
	c0.841,0,1.736-0.118,2.507-0.312l0.097-0.021v-2.713l-0.156,0.043c-0.41,0.118-0.958,0.186-1.444,0.186
	c-1.003-0.025-1.258-0.314-1.297-1.837v-5.09L138.746,26.627z"/>
<path id="Loan_1_" fill="#5F6062" d="M35.751,23.785c-1.832,0-3.385,0.68-4.472,1.837c-1.089,1.156-1.714,2.782-1.714,4.656
	c0,1.134,0.159,2.09,0.454,2.891h-5.185V19.769h-3.34v16.362h8.571v-2.84c0.258,0.654,0.603,1.204,1.043,1.646
	c0.992,0.99,2.414,1.432,4.116,1.432c3.624-0.006,6.18-2.739,6.186-6.521c0-2.061-0.55-3.583-1.542-4.589
	C38.876,24.254,37.457,23.785,35.751,23.785 M35.489,33.527c-1.693-0.009-2.514-1.143-2.532-3.557
	c0.008-2.392,1.284-3.361,2.577-3.368c1.717,0.01,2.466,1.141,2.485,3.416C38.007,32.396,36.914,33.523,35.489,33.527
	 M51.848,33.569v-5.557c0.001-1.317-0.271-2.389-1.053-3.126c-0.783-0.742-2.041-1.125-3.966-1.125
	c-1.542,0-3.083,0.313-4.292,0.748l-0.089,0.031l0.292,2.831l0.162-0.092c0.981-0.56,2.4-0.916,3.453-0.915
	c1.694,0.023,2.177,0.573,2.193,1.766v0.527c-3.985,0.036-6.848,1.549-6.851,4.466c0,0.979,0.32,1.797,0.925,2.368
	c0.608,0.568,1.491,0.877,2.586,0.877c1.578,0,2.926-0.724,3.64-1.833c-0.042,0.483-0.058,1-0.058,1.501v0.116l0.115,0.004
	c0.31,0.007,0.631,0.015,0.963,0.015c1.316,0,2.743-0.076,3.952-0.23l0.105-0.012V33.8l-0.113-0.007
	C53.164,33.747,52.403,33.661,51.848,33.569 M48.547,31.044c0,1.384-0.99,2.746-2.412,2.748c-0.837-0.01-1.279-0.447-1.288-1.147
	c0.005-0.854,0.591-1.731,3.7-1.765V31.044z M62.086,23.76c-1.749-0.001-3.072,0.792-3.86,1.978c0.063-0.557,0.089-1.187,0.089-1.62
	v-0.115L58.198,24c-0.322-0.01-0.652-0.013-0.987-0.013c-1.346,0-2.763,0.075-3.973,0.229l-0.105,0.015v2.128l0.11,0.005
	c0.647,0.046,1.405,0.129,1.965,0.218v9.55h3.273v-5.854c0.002-2.04,1.199-3.721,2.65-3.724c1.048,0.012,1.317,0.626,1.336,1.864
	v7.714h3.271v-8.455c0-1.056-0.212-2.029-0.787-2.751C64.379,24.203,63.453,23.759,62.086,23.76"/>
</svg>
