<?xml version="1.0" standalone="no"?>
<!DOCTYPE svg PUBLIC "-//W3C//DTD SVG 1.1//EN" "http://www.w3.org/Graphics/SVG/1.1/DTD/svg11.dtd">
<svg width="100%" height="100%" viewBox="0 0 847 318" version="1.1" xmlns="http://www.w3.org/2000/svg" xmlns:xlink="http://www.w3.org/1999/xlink" xml:space="preserve" style="fill-rule:evenodd;clip-rule:evenodd;stroke-linejoin:round;stroke-miterlimit:1.41421;">
    <g transform="matrix(4.16667,0,0,4.16667,-124.213,-138.792)">
        <path d="M30.769,82.405L30.769,34.099L43.526,34.099L53.56,51.8C56.427,56.89 59.293,62.911 61.443,68.356L61.658,68.356C60.941,61.979 60.727,55.456 60.727,48.218L60.727,34.099L70.761,34.099L70.761,82.405L59.293,82.405L48.973,63.77C46.106,58.609 42.952,52.374 40.588,46.712L40.372,46.785C40.659,53.164 40.803,59.972 40.803,67.856L40.803,82.405L30.769,82.405Z" style="fill:rgb(38,34,97);fill-rule:nonzero;"/>
    </g>
    <g transform="matrix(4.16667,0,0,4.16667,-124.213,-138.792)">
        <path d="M116.485,34.099L146.012,34.099L146.012,43.058L127.45,43.058L127.45,54.095L144.794,54.095L144.794,62.981L127.45,62.981L127.45,82.405L116.485,82.405L116.485,34.099Z" style="fill:rgb(167,169,172);fill-rule:nonzero;"/>
    </g>
    <g transform="matrix(4.16667,0,0,4.16667,-124.213,-138.792)">
        <path d="M151.433,71.153C154.372,72.657 158.886,74.163 163.545,74.163C168.562,74.163 171.214,72.084 171.214,68.93C171.214,65.92 168.92,64.2 163.115,62.122C155.088,59.326 149.856,54.882 149.856,47.859C149.856,39.617 156.737,33.31 168.132,33.31C173.579,33.31 177.592,34.456 180.459,35.748L178.023,44.562C176.087,43.63 172.647,42.269 167.917,42.269C163.187,42.269 160.893,44.419 160.893,46.927C160.893,50.009 163.617,51.371 169.852,53.736C178.381,56.89 182.394,61.333 182.394,68.141C182.394,76.241 176.159,83.122 162.9,83.122C157.381,83.122 151.934,81.688 149.211,80.183L151.433,71.153Z" style="fill:rgb(167,169,172);fill-rule:nonzero;"/>
    </g>
    <g transform="matrix(4.16667,0,0,4.16667,-124.213,-138.792)">
        <path d="M38.231,105.662L40.158,105.662L40.158,92.077L37.653,92.077L37.653,99.168L37.962,101.23L37.865,101.23L36.844,99.168L31.738,91.981L29.811,91.981L29.811,105.565L32.316,105.565L32.316,98.532L32.008,96.413L32.104,96.413L33.164,98.532L38.231,105.662Z" style="fill:rgb(38,34,97);fill-rule:nonzero;"/>
    </g>
    <g transform="matrix(4.16667,0,0,4.16667,-124.213,-138.792)">
        <path d="M40.948,105.566L50.294,105.566L50.294,103.215L43.569,103.215L44.552,102.482L50.294,94.428L50.294,92.077L40.948,92.077L40.948,94.428L47.654,94.428L46.652,95.237L40.948,103.215L40.948,105.566Z" style="fill:rgb(38,34,97);fill-rule:nonzero;"/>
    </g>
    <g transform="matrix(4.16667,0,0,4.16667,-124.213,-138.792)">
        <path d="M54.648,105.566L57.288,105.566L57.288,100.112L62.221,100.112L62.221,97.762L57.288,97.762L57.288,94.428L62.645,94.428L62.645,92.077L54.648,92.077L54.648,105.566Z" style="fill:rgb(147,149,152);fill-rule:nonzero;"/>
    </g>
    <g transform="matrix(4.16667,0,0,4.16667,-124.213,-138.792)">
        <path d="M63.724,105.566L66.229,105.566L66.229,95.931L63.724,95.931L63.724,105.566ZM63.782,94.139C64.052,94.39 64.437,94.524 64.919,94.524C65.4,94.524 65.805,94.39 66.113,94.139C66.402,93.889 66.557,93.58 66.557,93.214C66.557,92.848 66.402,92.52 66.113,92.251C65.805,92 65.4,91.865 64.919,91.865C64.437,91.865 64.052,92 63.782,92.251C63.493,92.52 63.358,92.848 63.358,93.214C63.358,93.58 63.493,93.889 63.782,94.139Z" style="fill:rgb(147,149,152);fill-rule:nonzero;"/>
    </g>
    <g transform="matrix(4.16667,0,0,4.16667,-124.213,-138.792)">
        <path d="M76.191,105.566L76.191,99.573C76.191,98.821 76.133,98.205 75.998,97.685C75.863,97.184 75.671,96.779 75.42,96.49C75.17,96.201 74.842,95.989 74.476,95.854C74.11,95.719 73.686,95.661 73.204,95.661C72.434,95.661 71.798,95.815 71.316,96.124C70.834,96.432 70.43,96.798 70.141,97.203L70.063,97.203L69.774,95.931L67.79,95.931L67.79,105.566L70.295,105.566L70.295,99.322C70.43,98.918 70.68,98.571 71.008,98.282C71.335,98.012 71.721,97.877 72.202,97.877C72.742,97.877 73.127,98.051 73.358,98.398C73.57,98.744 73.686,99.303 73.686,100.093L73.686,105.566L76.191,105.566Z" style="fill:rgb(147,149,152);fill-rule:nonzero;"/>
    </g>
    <g transform="matrix(4.16667,0,0,4.16667,-124.213,-138.792)">
        <path d="M77.944,98.359C78.31,98.186 78.773,98.051 79.331,97.954C79.89,97.858 80.41,97.8 80.911,97.8C81.586,97.8 82.01,97.954 82.202,98.263C82.395,98.59 82.453,99.11 82.357,99.823C81.509,99.785 80.738,99.804 80.064,99.901C79.37,99.997 78.773,100.17 78.291,100.421C77.79,100.671 77.404,100.999 77.154,101.403C76.884,101.808 76.749,102.309 76.749,102.906C76.749,103.33 76.826,103.716 76.961,104.043C77.096,104.39 77.308,104.679 77.559,104.93C77.809,105.18 78.117,105.373 78.484,105.508C78.85,105.643 79.254,105.72 79.697,105.72C80.41,105.72 81.008,105.566 81.47,105.277C81.913,104.987 82.28,104.66 82.53,104.255L82.626,104.255L83.031,105.585L85.074,105.585C84.919,105.122 84.823,104.621 84.784,104.101C84.746,103.581 84.727,103.061 84.746,102.502C84.746,101.943 84.765,101.384 84.804,100.806C84.842,100.247 84.862,99.669 84.862,99.11C84.862,98.59 84.804,98.128 84.707,97.723C84.592,97.318 84.399,96.952 84.149,96.663C83.879,96.374 83.513,96.143 83.07,95.97C82.626,95.815 82.068,95.738 81.393,95.738C80.622,95.738 79.89,95.796 79.177,95.931C78.464,96.066 77.867,96.259 77.347,96.49L77.944,98.359ZM79.659,103.35C79.447,103.157 79.331,102.887 79.331,102.521C79.331,102.271 79.408,102.059 79.582,101.885C79.755,101.712 79.967,101.596 80.256,101.5C80.545,101.403 80.873,101.346 81.239,101.326C81.605,101.307 81.971,101.307 82.376,101.346L82.376,102.598C82.241,102.849 82.01,103.099 81.721,103.311C81.432,103.542 81.027,103.658 80.526,103.658C80.16,103.658 79.871,103.562 79.659,103.35Z" style="fill:rgb(147,149,152);fill-rule:nonzero;"/>
    </g>
    <g transform="matrix(4.16667,0,0,4.16667,-124.213,-138.792)">
        <path d="M94.477,105.566L94.477,99.573C94.477,98.821 94.419,98.205 94.284,97.685C94.149,97.184 93.956,96.779 93.706,96.49C93.455,96.201 93.128,95.989 92.762,95.854C92.396,95.719 91.972,95.661 91.49,95.661C90.719,95.661 90.083,95.816 89.602,96.124C89.12,96.432 88.715,96.798 88.426,97.203L88.349,97.203L88.06,95.931L86.075,95.931L86.075,105.566L88.58,105.566L88.58,99.322C88.715,98.918 88.966,98.571 89.293,98.282C89.621,98.012 90.006,97.877 90.488,97.877C91.028,97.877 91.413,98.051 91.644,98.398C91.856,98.744 91.972,99.303 91.972,100.093L91.972,105.566L94.477,105.566Z" style="fill:rgb(147,149,152);fill-rule:nonzero;"/>
    </g>
    <g transform="matrix(4.16667,0,0,4.16667,-124.213,-138.792)">
        <path d="M101.934,103.061C101.703,103.215 101.433,103.35 101.144,103.446C100.855,103.562 100.489,103.619 100.065,103.619C99.679,103.619 99.352,103.542 99.063,103.388C98.774,103.253 98.523,103.041 98.35,102.791C98.176,102.54 98.041,102.232 97.945,101.885C97.849,101.538 97.81,101.153 97.81,100.748C97.81,99.746 97.984,99.014 98.35,98.552C98.716,98.109 99.236,97.877 99.93,97.877C100.296,97.877 100.643,97.916 100.932,97.993C101.221,98.07 101.51,98.186 101.799,98.32L102.396,96.278C102.049,96.105 101.664,95.95 101.24,95.835C100.797,95.719 100.238,95.661 99.525,95.661C98.119,95.661 97.059,96.105 96.327,96.972C95.594,97.858 95.228,99.111 95.228,100.748C95.228,101.5 95.305,102.194 95.459,102.829C95.594,103.465 95.845,103.986 96.172,104.429C96.5,104.872 96.943,105.219 97.483,105.469C98.003,105.72 98.658,105.835 99.429,105.835C100.007,105.835 100.566,105.758 101.124,105.604C101.664,105.469 102.126,105.257 102.512,104.968L101.934,103.061Z" style="fill:rgb(147,149,152);fill-rule:nonzero;"/>
    </g>
    <g transform="matrix(4.16667,0,0,4.16667,-124.213,-138.792)">
        <path d="M103.378,105.566L105.883,105.566L105.883,95.931L103.378,95.931L103.378,105.566ZM103.436,94.139C103.706,94.39 104.091,94.525 104.573,94.525C105.055,94.525 105.459,94.39 105.768,94.139C106.057,93.889 106.211,93.58 106.211,93.214C106.211,92.848 106.057,92.521 105.768,92.251C105.459,92 105.055,91.865 104.573,91.865C104.091,91.865 103.706,92 103.436,92.251C103.147,92.521 103.012,92.848 103.012,93.214C103.012,93.58 103.147,93.889 103.436,94.139Z" style="fill:rgb(147,149,152);fill-rule:nonzero;"/>
    </g>
    <g transform="matrix(4.16667,0,0,4.16667,-124.213,-138.792)">
        <path d="M107.984,98.359C108.35,98.186 108.812,98.051 109.371,97.954C109.93,97.858 110.45,97.8 110.951,97.8C111.625,97.8 112.049,97.954 112.242,98.263C112.435,98.59 112.493,99.111 112.396,99.823C111.548,99.785 110.778,99.804 110.103,99.901C109.409,99.997 108.812,100.17 108.33,100.421C107.829,100.671 107.444,100.999 107.194,101.404C106.924,101.808 106.789,102.309 106.789,102.906C106.789,103.33 106.866,103.716 107.001,104.043C107.136,104.39 107.348,104.679 107.598,104.93C107.849,105.18 108.157,105.373 108.523,105.508C108.889,105.643 109.294,105.72 109.737,105.72C110.45,105.72 111.047,105.566 111.51,105.277C111.953,104.988 112.319,104.66 112.57,104.255L112.666,104.255L113.071,105.585L115.113,105.585C114.959,105.122 114.863,104.621 114.824,104.101C114.786,103.581 114.766,103.061 114.786,102.502C114.786,101.943 114.805,101.384 114.843,100.806C114.882,100.247 114.901,99.669 114.901,99.111C114.901,98.59 114.843,98.128 114.747,97.723C114.631,97.318 114.439,96.952 114.188,96.663C113.918,96.374 113.552,96.143 113.109,95.97C112.666,95.816 112.107,95.738 111.433,95.738C110.662,95.738 109.93,95.796 109.217,95.931C108.504,96.066 107.907,96.259 107.386,96.49L107.984,98.359ZM109.699,103.35C109.487,103.157 109.371,102.887 109.371,102.521C109.371,102.271 109.448,102.059 109.621,101.885C109.795,101.712 110.007,101.596 110.296,101.5C110.585,101.404 110.912,101.346 111.279,101.326C111.645,101.307 112.011,101.307 112.415,101.346L112.415,102.598C112.281,102.849 112.049,103.099 111.76,103.311C111.471,103.542 111.067,103.658 110.566,103.658C110.2,103.658 109.91,103.562 109.699,103.35Z" style="fill:rgb(147,149,152);fill-rule:nonzero;"/>
    </g>
    <g transform="matrix(4.16667,0,0,4.16667,-124.213,-138.792)">
        <path d="M118.697,92.077L116.192,92.077L116.192,103.639C116.192,104.429 116.385,104.988 116.77,105.315C117.155,105.662 117.714,105.835 118.446,105.835C118.89,105.835 119.333,105.778 119.757,105.681C120.181,105.585 120.489,105.469 120.701,105.373L120.431,103.407C120.219,103.504 120.027,103.562 119.892,103.581C119.738,103.6 119.583,103.619 119.429,103.619C119.179,103.619 118.986,103.523 118.87,103.311C118.755,103.099 118.697,102.772 118.697,102.328L118.697,92.077Z" style="fill:rgb(147,149,152);fill-rule:nonzero;"/>
    </g>
    <g transform="matrix(4.16667,0,0,4.16667,-124.213,-138.792)">
        <path d="M130.142,103.138C129.719,103.407 129.121,103.542 128.331,103.542C128.004,103.542 127.676,103.523 127.368,103.465C127.04,103.407 126.751,103.35 126.462,103.273C126.173,103.196 125.923,103.118 125.711,103.022C125.479,102.926 125.287,102.849 125.152,102.772L124.304,105.026C124.651,105.199 125.19,105.392 125.923,105.566C126.655,105.739 127.503,105.835 128.466,105.835C129.198,105.835 129.873,105.758 130.489,105.585C131.087,105.411 131.607,105.161 132.05,104.814C132.474,104.467 132.802,104.024 133.052,103.504C133.283,102.984 133.399,102.367 133.399,101.654C133.399,100.941 133.245,100.324 132.956,99.843C132.647,99.361 132.262,98.956 131.819,98.629C131.356,98.301 130.855,98.031 130.335,97.8C129.796,97.569 129.295,97.338 128.851,97.126C128.389,96.914 128.004,96.663 127.715,96.413C127.406,96.162 127.252,95.835 127.252,95.449C127.252,95.045 127.426,94.717 127.753,94.467C128.081,94.216 128.543,94.101 129.16,94.101C129.815,94.101 130.432,94.178 130.99,94.313C131.549,94.467 131.973,94.64 132.262,94.814L133.091,92.598C132.647,92.347 132.069,92.135 131.376,92C130.682,91.865 129.95,91.808 129.16,91.808C128.485,91.808 127.869,91.885 127.31,92.039C126.751,92.193 126.289,92.424 125.884,92.752C125.479,93.079 125.152,93.465 124.94,93.946C124.728,94.428 124.612,95.006 124.612,95.661C124.612,96.413 124.766,97.049 125.075,97.53C125.364,98.012 125.749,98.417 126.212,98.744C126.655,99.072 127.156,99.361 127.695,99.573C128.216,99.804 128.717,100.016 129.179,100.228C129.622,100.44 130.008,100.691 130.316,100.941C130.605,101.192 130.759,101.538 130.759,101.943C130.759,102.483 130.547,102.887 130.142,103.138Z" style="fill:rgb(147,149,152);fill-rule:nonzero;"/>
    </g>
    <g transform="matrix(4.16667,0,0,4.16667,-124.213,-138.792)">
        <path d="M141.088,103.099C140.876,103.273 140.548,103.427 140.144,103.581C139.72,103.754 139.238,103.831 138.718,103.831C137.87,103.831 137.253,103.619 136.887,103.215C136.502,102.81 136.29,102.194 136.251,101.384L142.032,101.384C142.09,101.057 142.148,100.729 142.186,100.421C142.205,100.112 142.225,99.823 142.225,99.554C142.225,98.802 142.109,98.186 141.897,97.685C141.685,97.184 141.396,96.779 141.03,96.49C140.664,96.201 140.259,95.989 139.797,95.854C139.334,95.719 138.853,95.661 138.371,95.661C136.906,95.661 135.77,96.085 134.96,96.933C134.151,97.781 133.746,99.053 133.746,100.748C133.746,102.328 134.112,103.562 134.825,104.467C135.538,105.373 136.675,105.835 138.236,105.835C138.987,105.835 139.681,105.72 140.356,105.508C141.011,105.296 141.531,105.045 141.916,104.737L141.088,103.099ZM139.585,98.224C139.835,98.59 139.951,99.13 139.893,99.823L136.309,99.823C136.367,99.168 136.56,98.648 136.887,98.243C137.195,97.858 137.677,97.665 138.332,97.665C138.891,97.665 139.315,97.858 139.585,98.224Z" style="fill:rgb(147,149,152);fill-rule:nonzero;"/>
    </g>
    <g transform="matrix(4.16667,0,0,4.16667,-124.213,-138.792)">
        <path d="M148.756,95.931C148.332,95.796 147.947,95.719 147.62,95.719C147.119,95.719 146.675,95.854 146.309,96.105C145.943,96.355 145.635,96.721 145.423,97.203L145.346,97.203L145.057,95.931L143.111,95.931L143.111,105.566L145.616,105.566L145.616,99.342C145.712,98.976 145.924,98.667 146.232,98.417C146.521,98.186 146.907,98.07 147.35,98.07C147.677,98.07 148.024,98.147 148.429,98.282L148.756,95.931Z" style="fill:rgb(147,149,152);fill-rule:nonzero;"/>
    </g>
    <g transform="matrix(4.16667,0,0,4.16667,-124.213,-138.792)">
        <path d="M150.53,95.931L147.62,95.931L151.801,105.662L153.324,105.662L157.351,95.931L154.653,95.931L153.015,100.941L152.745,102.463L152.649,102.463L152.322,100.98L150.53,95.931Z" style="fill:rgb(147,149,152);fill-rule:nonzero;"/>
    </g>
    <g transform="matrix(4.16667,0,0,4.16667,-124.213,-138.792)">
        <path d="M157.524,105.566L160.029,105.566L160.029,95.931L157.524,95.931L157.524,105.566ZM157.582,94.139C157.852,94.39 158.237,94.525 158.719,94.525C159.2,94.525 159.605,94.39 159.913,94.139C160.202,93.889 160.357,93.58 160.357,93.214C160.357,92.848 160.202,92.521 159.913,92.251C159.605,92 159.2,91.865 158.719,91.865C158.237,91.865 157.852,92 157.582,92.251C157.293,92.521 157.158,92.848 157.158,93.214C157.158,93.58 157.293,93.889 157.582,94.139Z" style="fill:rgb(147,149,152);fill-rule:nonzero;"/>
    </g>
    <g transform="matrix(4.16667,0,0,4.16667,-124.213,-138.792)">
        <path d="M167.833,103.061C167.602,103.215 167.332,103.35 167.043,103.446C166.754,103.562 166.388,103.619 165.964,103.619C165.578,103.619 165.251,103.542 164.962,103.388C164.673,103.253 164.422,103.041 164.249,102.791C164.075,102.54 163.94,102.232 163.844,101.885C163.748,101.538 163.709,101.153 163.709,100.748C163.709,99.746 163.883,99.014 164.249,98.552C164.615,98.109 165.135,97.877 165.829,97.877C166.195,97.877 166.542,97.916 166.831,97.993C167.12,98.07 167.409,98.186 167.698,98.32L168.295,96.278C167.948,96.105 167.563,95.95 167.139,95.835C166.696,95.719 166.137,95.661 165.424,95.661C164.018,95.661 162.958,96.105 162.226,96.972C161.493,97.858 161.127,99.111 161.127,100.748C161.127,101.5 161.204,102.194 161.358,102.829C161.493,103.465 161.744,103.986 162.071,104.429C162.399,104.872 162.842,105.219 163.382,105.469C163.902,105.72 164.557,105.835 165.328,105.835C165.906,105.835 166.465,105.758 167.023,105.604C167.563,105.469 168.025,105.257 168.411,104.968L167.833,103.061Z" style="fill:rgb(147,149,152);fill-rule:nonzero;"/>
    </g>
    <g transform="matrix(4.16667,0,0,4.16667,-124.213,-138.792)">
        <path d="M175.6,103.099C175.388,103.273 175.06,103.427 174.655,103.581C174.231,103.754 173.75,103.831 173.229,103.831C172.382,103.831 171.765,103.619 171.399,103.215C171.014,102.81 170.802,102.194 170.763,101.384L176.544,101.384C176.602,101.057 176.659,100.729 176.698,100.421C176.717,100.112 176.736,99.823 176.736,99.554C176.736,98.802 176.621,98.186 176.409,97.685C176.197,97.184 175.908,96.779 175.542,96.49C175.176,96.201 174.771,95.989 174.309,95.854C173.846,95.719 173.364,95.661 172.883,95.661C171.418,95.661 170.281,96.085 169.472,96.933C168.663,97.781 168.258,99.053 168.258,100.748C168.258,102.328 168.624,103.562 169.337,104.467C170.05,105.373 171.187,105.835 172.748,105.835C173.499,105.835 174.193,105.72 174.867,105.508C175.522,105.296 176.043,105.045 176.428,104.737L175.6,103.099ZM174.097,98.224C174.347,98.59 174.463,99.13 174.405,99.823L170.821,99.823C170.879,99.168 171.071,98.648 171.399,98.243C171.707,97.858 172.189,97.665 172.844,97.665C173.403,97.665 173.827,97.858 174.097,98.224Z" style="fill:rgb(147,149,152);fill-rule:nonzero;"/>
    </g>
    <g transform="matrix(4.16667,0,0,4.16667,-124.213,-138.792)">
        <path d="M181.283,103.619C181.052,103.754 180.743,103.831 180.377,103.831C179.857,103.831 179.356,103.754 178.874,103.581C178.393,103.427 177.988,103.273 177.699,103.099L177.005,104.968C177.371,105.199 177.872,105.392 178.47,105.566C179.067,105.739 179.703,105.835 180.377,105.835C181.63,105.835 182.555,105.546 183.191,104.988C183.807,104.429 184.116,103.677 184.116,102.695C184.116,102.136 184,101.673 183.788,101.307C183.576,100.941 183.306,100.652 182.979,100.421C182.651,100.209 182.304,100.016 181.919,99.881C181.533,99.746 181.187,99.611 180.859,99.477C180.532,99.361 180.262,99.226 180.05,99.091C179.838,98.956 179.722,98.764 179.722,98.532C179.722,97.954 180.088,97.665 180.84,97.665C181.302,97.665 181.765,97.723 182.208,97.858C182.651,97.993 183.036,98.109 183.325,98.224L183.884,96.413C183.557,96.22 183.094,96.047 182.497,95.893C181.9,95.738 181.244,95.661 180.512,95.661C179.452,95.661 178.624,95.912 178.065,96.413C177.506,96.914 177.217,97.646 177.217,98.59C177.217,99.168 177.333,99.631 177.545,99.997C177.757,100.363 178.027,100.671 178.354,100.903C178.682,101.153 179.029,101.326 179.414,101.461C179.799,101.596 180.146,101.731 180.474,101.866C180.801,102.001 181.071,102.136 181.283,102.29C181.495,102.444 181.611,102.656 181.611,102.906C181.611,103.234 181.495,103.485 181.283,103.619Z" style="fill:rgb(147,149,152);fill-rule:nonzero;"/>
    </g>
    <g transform="matrix(4.16667,0,0,4.16667,-124.213,-138.792)">
        <path d="M193.424,100.132L196.333,100.44L196.333,102.984C196.121,103.157 195.851,103.273 195.524,103.35C195.196,103.446 194.869,103.485 194.541,103.485C194.059,103.485 193.597,103.388 193.173,103.215C192.73,103.041 192.364,102.752 192.036,102.367C191.709,102.001 191.458,101.519 191.285,100.922C191.111,100.344 191.015,99.65 191.015,98.841C191.015,97.993 191.111,97.28 191.304,96.683C191.477,96.085 191.747,95.604 192.094,95.218C192.422,94.852 192.826,94.582 193.289,94.409C193.751,94.235 194.252,94.158 194.811,94.158C195.427,94.158 195.928,94.197 196.333,94.255C196.738,94.332 197.085,94.428 197.412,94.563L197.952,92.347C197.605,92.212 197.142,92.097 196.564,91.981C195.967,91.865 195.293,91.808 194.522,91.808C193.751,91.808 193,91.923 192.248,92.174C191.497,92.424 190.841,92.829 190.244,93.388C189.647,93.946 189.165,94.679 188.799,95.565C188.433,96.471 188.24,97.55 188.24,98.821C188.24,100.035 188.394,101.095 188.703,101.982C189.011,102.868 189.435,103.6 189.974,104.159C190.514,104.737 191.15,105.161 191.901,105.431C192.634,105.7 193.424,105.835 194.291,105.835C195.023,105.835 195.774,105.739 196.526,105.527C197.277,105.315 197.913,104.988 198.453,104.544L198.453,98.532L193.424,98.532L193.424,100.132Z" style="fill:rgb(147,149,152);fill-rule:nonzero;"/>
    </g>
    <g transform="matrix(4.16667,0,0,4.16667,-124.213,-138.792)">
        <path d="M205.1,95.931C204.676,95.796 204.291,95.719 203.963,95.719C203.462,95.719 203.019,95.854 202.653,96.105C202.287,96.355 201.978,96.721 201.766,97.203L201.689,97.203L201.4,95.931L199.454,95.931L199.454,105.566L201.959,105.566L201.959,99.342C202.055,98.976 202.267,98.667 202.576,98.417C202.865,98.186 203.25,98.07 203.693,98.07C204.021,98.07 204.368,98.147 204.772,98.282L205.1,95.931Z" style="fill:rgb(147,149,152);fill-rule:nonzero;"/>
    </g>
    <g transform="matrix(4.16667,0,0,4.16667,-124.213,-138.792)">
        <path d="M205.159,102.829C205.332,103.465 205.621,103.986 206.006,104.429C206.372,104.872 206.854,105.219 207.413,105.469C207.972,105.72 208.646,105.835 209.417,105.835C210.862,105.835 211.98,105.392 212.77,104.506C213.56,103.639 213.945,102.386 213.945,100.748C213.945,99.997 213.849,99.303 213.675,98.667C213.483,98.031 213.194,97.492 212.828,97.049C212.461,96.606 211.98,96.278 211.421,96.027C210.862,95.777 210.188,95.661 209.417,95.661C207.972,95.661 206.854,96.105 206.064,96.972C205.274,97.858 204.87,99.111 204.87,100.748C204.87,101.5 204.966,102.194 205.159,102.829ZM207.972,98.475C208.319,98.012 208.8,97.781 209.417,97.781C210.13,97.781 210.631,98.051 210.92,98.59C211.209,99.149 211.363,99.862 211.363,100.748C211.363,101.77 211.209,102.521 210.881,103.003C210.554,103.485 210.072,103.716 209.417,103.716C209.07,103.716 208.781,103.639 208.531,103.485C208.28,103.35 208.068,103.138 207.914,102.868C207.76,102.598 207.644,102.29 207.567,101.924C207.49,101.558 207.452,101.172 207.452,100.748C207.452,99.689 207.625,98.937 207.972,98.475Z" style="fill:rgb(147,149,152);fill-rule:nonzero;"/>
    </g>
    <g transform="matrix(4.16667,0,0,4.16667,-124.213,-138.792)">
        <path d="M214.696,95.931L214.696,101.924C214.696,102.675 214.773,103.311 214.908,103.812C215.042,104.313 215.235,104.718 215.486,105.007C215.736,105.296 216.064,105.508 216.449,105.643C216.834,105.778 217.278,105.835 217.759,105.835C218.472,105.835 219.108,105.681 219.628,105.354C220.149,105.026 220.573,104.621 220.862,104.14L220.939,104.14L221.382,105.566L223.27,105.566C223.174,105.161 223.097,104.698 223.039,104.178C222.981,103.677 222.962,103.157 222.962,102.637L222.962,95.931L220.457,95.931L220.457,102.155C220.303,102.56 220.072,102.906 219.763,103.196C219.436,103.485 219.05,103.619 218.569,103.619C218.029,103.619 217.663,103.446 217.49,103.099C217.297,102.752 217.201,102.194 217.201,101.404L217.201,95.931L214.696,95.931Z" style="fill:rgb(147,149,152);fill-rule:nonzero;"/>
    </g>
    <g transform="matrix(4.16667,0,0,4.16667,-124.213,-138.792)">
        <path d="M224.271,109.419L226.776,109.419L226.776,105.469C227.027,105.604 227.297,105.681 227.547,105.739C227.798,105.797 228.125,105.835 228.53,105.835C229.243,105.835 229.859,105.72 230.418,105.469C230.958,105.219 231.42,104.872 231.806,104.409C232.172,103.947 232.461,103.388 232.653,102.714C232.846,102.059 232.942,101.326 232.942,100.498C232.942,98.802 232.634,97.569 232.037,96.798C231.439,96.047 230.534,95.661 229.32,95.661C228.665,95.661 228.106,95.777 227.663,96.008C227.2,96.239 226.796,96.606 226.468,97.087L226.391,97.087L226.102,95.931L224.271,95.931L224.271,109.419ZM229.936,98.475C230.226,98.937 230.36,99.592 230.36,100.44C230.36,101.615 230.187,102.444 229.821,102.945C229.455,103.465 228.915,103.716 228.202,103.716C227.855,103.716 227.586,103.677 227.374,103.581C227.162,103.504 226.95,103.388 226.776,103.253L226.776,99.245C226.931,98.764 227.142,98.398 227.432,98.147C227.701,97.897 228.087,97.781 228.568,97.781C229.204,97.781 229.647,98.012 229.936,98.475Z" style="fill:rgb(147,149,152);fill-rule:nonzero;"/>
    </g>
    <g transform="matrix(4.16667,0,0,4.16667,-124.213,-138.792)">
        <path d="M109.439,39.821C109.506,40.118 109.559,40.414 109.603,40.709L109.741,40.31L109.741,34.006L75.145,34.006L75.145,43.033L95.733,43.033L82.998,61.758C87.541,57.271 91.726,53.991 96.354,51.24C99.254,49.515 101.824,47.868 104.211,46.206C106.296,44.754 108.003,42.632 109.422,39.726C109.429,39.756 109.433,39.786 109.439,39.817C109.439,39.817 109.44,39.813 109.441,39.811C109.441,39.815 109.44,39.817 109.439,39.821Z" style="fill:rgb(38,34,97);fill-rule:nonzero;"/>
    </g>
    <g transform="matrix(4.16667,0,0,4.16667,-124.213,-138.792)">
        <path d="M96.571,73.27C96.56,73.344 96.552,73.423 96.541,73.494C94.892,74.046 93.138,74.754 91.282,75.504C89.412,76.261 87.48,77.04 85.587,77.68C85.894,76.87 86.221,75.901 86.566,74.885C87.087,73.346 87.627,71.753 88.121,70.619C91.005,63.983 95.694,58.658 100.329,53.891L100.935,53.269C102.249,51.92 103.607,50.524 104.917,49.127C105.477,48.528 105.911,47.85 106.205,47.106C107.034,45.363 109.386,41.487 109.439,39.821C109.439,39.821 109.439,39.819 109.439,39.817C108.126,43.407 105.501,47.685 102.548,50.451C101.352,51.572 100.015,52.765 98.867,53.9C96.384,56.353 94.006,58.913 91.589,61.515C87.459,65.959 85.14,71.788 83.276,76.477C83.056,77.026 82.805,77.58 82.564,78.116C82.108,79.127 81.528,80.145 81.346,81.252C81.269,81.717 81.159,82.051 81.017,82.298L110.095,82.298L110.095,73.27L96.571,73.27Z" style="fill:rgb(38,34,97);fill-rule:nonzero;"/>
    </g>
    <g transform="matrix(4.16667,0,0,4.16667,-124.213,-138.792)">
        <path d="M80.386,79.993C81.526,77.657 81.59,75.846 80.582,74.447C79.807,73.373 79.304,72.351 78.771,71.266C78.483,70.681 78.185,70.075 77.831,69.435C77.822,69.419 77.819,69.401 77.81,69.383L73.023,76.423L73.023,82.298L78.939,82.298C79.601,81.6 80.073,80.637 80.386,79.993Z" style="fill:rgb(38,34,97);fill-rule:nonzero;"/>
    </g>
    <g transform="matrix(4.16667,0,0,4.16667,-124.213,-138.792)">
        <path d="M106.448,46.293C105.579,47.666 104.583,48.956 103.467,50.136C102.631,51.018 101.709,51.81 100.893,52.711L100.259,53.362C95.409,58.347 90.508,63.916 87.491,70.857C86.975,72.039 86.411,73.705 85.864,75.317C85.504,76.382 85.207,77.784 84.886,78.635C86.866,77.964 88.875,77.151 90.831,76.36C92.772,75.577 95.958,74.231 97.493,73.27C96.691,72.796 96.507,72.23 96.598,71.324C96.745,69.87 96.894,68.368 97.222,67.136C98.571,62.059 101.451,57.649 104.283,53.568C105.825,51.349 107.585,48.758 108.982,46.076C110.128,43.88 110.396,41.285 109.768,38.547C109.83,38.822 109.56,39.34 109.485,39.59C108.782,41.952 107.761,44.216 106.448,46.293Z" style="fill:rgb(167,169,172);"/>
    </g>
</svg>
